<svg xmlns="http://www.w3.org/2000/svg" width="512.236" height="463.207" viewBox="0 0 512.236 463.207"><path d="M2121.43 1604.89v107.66h-107.66v-107.66zm-236.85 129.19h107.66v107.66h-107.66zm0 129.19h107.66v107.66h-107.66zm-129.19-516.76h107.66v107.66h-107.66zm0 129.19h107.66v107.66h-107.66zm0 129.19h107.66v107.66h-107.66zm0 129.19h107.66v107.66h-107.66zm0 129.19h107.66v107.66h-107.66zm0 129.19h107.66v107.66h-107.66Zm-129.19-775.14h107.66v107.66H1626.2Zm0 516.76h107.66v107.66H1626.2Zm0 129.19h107.66v107.66H1626.2Zm0 129.19h107.66v107.66H1626.2Zm0 129.2h107.66v107.65H1626.2Zm0 516.76h107.66v107.66H1626.2Zm0 387.57h107.66v107.66H1626.2Zm-129.19-1162.72h107.65v107.66h-107.65zm0 129.19h107.65v107.66h-107.65zm0 129.2h107.65v107.65h-107.65zm0 387.57h107.65v107.66h-107.65zm0 387.57h107.65v107.66h-107.65zm0 387.57h107.65v107.66h-107.65zm-129.19-1421.1h107.65v107.66h-107.65zm0 129.19h107.65v107.66h-107.65zm0 129.2h107.65v107.65h-107.65zm0 129.19h107.65v107.66h-107.65zm0 129.19h107.65v107.66h-107.65zm0 129.19h107.65v107.66h-107.65zm0 129.19h107.65v107.66h-107.65zm0 129.19h107.65v107.66h-107.65zm0 129.19h107.65v107.66h-107.65zm0 387.57h107.65v107.66h-107.65zm0 129.19h107.65v107.66h-107.65zm-129.2-1679.48h107.66v107.66h-107.66zm0 129.19h107.66v107.66h-107.66zm0 129.19h107.66v107.66h-107.66zm0 129.2h107.66v107.65h-107.66zm0 387.57h107.66v107.66h-107.66zm0 129.19h107.66v107.66h-107.66zm0 129.19h107.66v107.66h-107.66zm0 129.19h107.66v107.66h-107.66zm0 258.38h107.66v107.66h-107.66zm0 129.19h107.66v107.66h-107.66zm0 129.19h107.66v107.66h-107.66Zm-129.19-1679.48h107.66v107.66h-107.66zm0 129.19h107.66v107.66h-107.66zm0 129.19h107.66v107.66h-107.66zm0 129.2h107.66v107.65h-107.66zm0 387.57h107.66v107.66h-107.66zm0 129.19h107.66v107.66h-107.66zm0 258.38h107.66v107.66h-107.66zm0 129.19h107.66v107.66h-107.66zm0 129.19h107.66v107.66h-107.66zm0 129.19h107.66v107.66h-107.66Zm-129.188-516.76H1087.9v107.66H980.242Zm0 129.19H1087.9v107.66H980.242Zm0 258.38H1087.9v107.66H980.242Zm0 129.19H1087.9v107.66H980.242ZM851.055 1604.89h107.656v107.66H851.055Zm0 129.19h107.656v107.66H851.055Zm0 129.19h107.656v107.66H851.055Zm0 129.19h107.656v107.66H851.055Zm0 129.2h107.656v107.65H851.055Zm0 387.57h107.656v107.66H851.055Zm0 129.19h107.656v107.66H851.055Zm0 258.38h107.656v107.66H851.055Zm0 387.57h107.656v107.66H851.055Zm0 129.19h107.656v107.66H851.055Zm0 129.19h107.656v107.66H851.055ZM721.863 1475.7H829.52v107.66H721.863Zm0 129.19H829.52v107.66H721.863Zm0 129.19H829.52v107.66H721.863Zm0 129.19H829.52v107.66H721.863Zm0 129.19H829.52v107.66H721.863Zm0 516.77H829.52v107.66H721.863Zm0 129.19H829.52v107.66H721.863Zm0 387.57H829.52v107.66H721.863Zm0 387.57H829.52v107.66H721.863ZM592.672 1217.32h107.66v107.66h-107.66zm0 129.19h107.66v107.66h-107.66zm0 645.95h107.66v107.66h-107.66zm0 129.2h107.66v107.65h-107.66zm0 516.76h107.66v107.66h-107.66ZM463.48 1217.32h107.661v107.66H463.48Zm0 775.14h107.661v107.66H463.48Zm0 129.2h107.661v107.65H463.48Zm0 129.19h107.661v107.66H463.48Zm-129.191-387.58h107.66v107.66h-107.66zm0 129.19h107.66v107.66h-107.66zm0 129.2h107.66v107.65h-107.66zm0 129.19h107.66v107.66h-107.66zm0 129.19h107.66v107.66h-107.66Zm-129.187-516.77h107.656v107.66H205.102Zm0 129.19h107.656v107.66H205.102Zm882.798 753.62H980.242v-107.66H1087.9Zm0-129.19H980.242v-107.66H1087.9Zm0-129.19H980.242v-107.66H1087.9Zm0-129.19H980.242v-107.66H1087.9Zm0-129.2H980.242v-107.65H1087.9Zm0-129.19H980.242v-107.66H1087.9Zm0-129.19H980.242v-107.66H1087.9Zm0-129.19H980.242v-107.66H1087.9z" style="fill:#028755;fill-opacity:1;fill-rule:nonzero;stroke:none" transform="matrix(.13333 0 0 -.13333 -27.347 486.721)"/><path d="M205.102 1210.68V176.359H4046.87V1210.68z" style="fill:#231f20;fill-opacity:1;fill-rule:nonzero;stroke:none" transform="matrix(.13333 0 0 -.13333 -27.347 486.721)"/><path d="M540.129 421.359c6.016-31.289.601-56.558-14.441-80.027-12.637-21.062-42.122-24.672-66.79-28.281 16.247-7.821 40.915-4.813 56.559.609-6.016-9.629-17.449-7.828-26.477-12.64-47.531-1.809-99.878-4.211-148.015 4.812 9.023 2.406 29.484-3.012 24.668 5.418-18.051 4.211-42.719-6.02-55.356 13.84-1.203 88.449-.601 172.68-1.804 254.519 6.015 6.61 6.015 6.61 12.636 13.84 70.399-1.211 178.102 39.711 206.985-45.129 8.422-45.129-32.492-92.66 12.035-126.961m-43.926 66.192c1.805 20.449 11.434 48.73-7.223 61.371.606-6.621 12.036-15.641 1.208-20.461-39.715 21.059-91.461 4.82-134.782 14.437 0 2.411-.601 6.622-.601 9.032 27.074 5.41 67.992 3.011 95.066 9.019-31.891 7.223-70.398 3.61-99.883 4.223-2.406-6.621-11.429-.613-13.234-7.231-3.613-27.671-9.027-59.562 3.609-86.043 9.024-1.796 29.485 1.211 19.856 14.442 40.914-5.41 86.043-.602 129.367 1.211 0-4.821-1.809-4.821-1.809-7.223 4.817-1.808 6.621 3.004 8.426 7.223m15.645-87.852c1.804 11.43-1.805 31.891-12.637 27.071 25.273-12.629 1.805-34.29 7.223-54.75 3.609 9.628 7.82 16.851 5.414 27.679M495 367.211c13.238 12.031 5.414 34.289-1.805 45.121-43.324 3.008-95.672 3.008-136.586 1.207 0 4.211-3.007 10.832 1.805 15.641 33.695 1.808 77.016 1.199 110.711 7.218-31.891 5.422-89.051 5.422-125.152 3.614-15.043-21.063-15.043-64.383-5.414-86.641 4.812-1.812 32.492-5.422 20.457 7.82 45.129 9.02 93.863-12.031 135.984 6.02m379.063-45.731c-6.622-2.41-10.833-7.218-19.86-5.421-26.473 30.691 16.246 89.66-32.488 105.902 21.66-17.449 13.836-56.563 13.234-81.231-14.437 10.231 6.02 63.782-34.898 59.571-31.891.597-70.399 6.019-99.278-9.031-16.847 19.859 34.899 28.89-4.214 36.109-9.024 1.801-17.45-7.828-17.45-14.438-14.437-34.902 26.477-87.25-18.05-100.492-4.813 6.621-12.036 10.832-14.442 17.449 10.231 80.032 1.203 170.282 2.406 252.114 4.215 4.82 6.02 7.218 10.832 12.039 75.215-3.61 175.696 30.679 211.2-45.129 3.609-33.703 16.843-76.422-13.84-100.481 26.473-37.312 15.043-81.23 16.848-126.961m-31.891 212.399c3.609 11.43-33.695 39.711-12.035 13.23 9.629-22.257 13.84-55.949 1.203-79.418 24.672 12.637 7.223 43.321 10.832 66.188m-15.645-14.438c-30.687 33.09-89.05 9.618-127.558 12.629-12.035 10.828 7.82 30.09-12.637 26.481-7.824-27.68-4.215-58.969-7.223-88.449 2.407-4.821 7.223-9.032 11.434-10.832 33.094 28.281 75.211 5.41 115.527 7.218 29.481 3.614 19.254 32.492 20.457 52.953M1212.81 332.91c2.41-13.238-13.24-18.648-27.08-16.851-56.56-4.809-108.91-.598-163.06-.598-9.63-.602-9.63 8.418-14.44 15.039-4.21 86.051 3.61 170.891 0 252.109 6.62 7.231 10.83 14.45 0 0 6.62 7.231 10.83 14.45 17.45 14.45 63.78.601 137.79 19.851 182.32-14.45-4.22-9.019-3.61-11.429-10.23-18.648-27.68 6.019-19.86-12.031-10.83-16.242-40.32-13.239-77.02-1.207-124.56-7.828-10.83-12.032-3-31.891-4.81-45.719 48.14-11.442 97.48 9.019 117.93-42.731-1.8-15.64-51.74-10.832-12.63-20.453-31.29-13.238-63.78-5.418-97.48-13.84-6.01-13.839-12.03-32.488-4.81-45.726 37.3-16.25 84.24 1.797 120.94-7.82-6.62-3.012-13.24-3.012-17.45-7.832 15.65-3.61 42.72 1.812 48.74-22.86m-53.55-29.48c-31.29-6.02-74.61-6.02-113.72 1.8 36.7-5.41 77.01 3.008 113.72-1.8m-101.09 179.3c-10.23 22.27-6.62 49.942-6.02 79.43-17.44-14.441-15.64-48.738-16.84-75.82 4.81-4.211 16.24-10.828 22.86-3.61m-3.01-40.91h-1.8c-4.21-7.218-16.25-3.011-15.65-12.039 1.21-22.859-12.63-69.191 16.85-76.41 3.61 22.859-4.81 63.18.6 88.449m516.85-114.332c-3.61-11.429-15.04-9.617-22.26-7.816-2.41 6.617-9.63 8.43-7.22 18.047 8.42 61.383-6.62 135.992 2.41 195.562-7.82 15.039-13.24-5.422-18.05-10.23 4.81-51.75-41.52-86.051-48.14-134.18-9.02-7.223-22.26-14.441-33.69-7.82-22.27 30.679-33.1 71-58.97 99.277 3.01-15.648 80.03-173.289 11.43-54.156-46.93 25.269 5.42 84.84-32.49 116.726-15.04-16.238-4.81-43.316-4.21-61.367-4.21-52.351-1.81-107.101-1.81-158.851-9.02-7.219-29.48-10.828-32.49 4.808 1.2 84.242 6.62 166.684 2.41 252.723 9.02 11.43 27.07 15.039 38.51 10.828 29.48-55.359 57.16-108.91 86.64-161.859 4.81-2.41 6.62 2.41 11.43 4.82-40.31 25.27 19.86 51.141 15.05 59.559 2.4.613 2.4.613 2.4-1.797 37.31 26.468 18.05 111.91 82.44 96.867 10.22-83.629 5.41-176.899 6.61-261.141m-40.31 141.403c6.02-31.891 2.41-204.571-9.02-50.539-7.23 6.617-10.84-7.223-15.65-9.633 8.42 20.461 12.03 41.519 24.67 60.172m365.82-135.981c2.41-13.238-13.23-18.648-27.07-16.851-56.56-4.809-108.91-.598-163.06-.598-9.63-.602-9.63 8.418-14.44 15.039-4.21 86.051 3.61 170.891 0 252.109 6.62 7.231 10.83 14.45 0 0 6.62 7.231 10.83 14.45 17.45 14.45 63.78.601 137.79 19.851 182.31-14.45-4.21-9.019-3.61-11.429-10.23-18.648-27.68 6.019-19.85-12.031-10.83-16.242-40.31-13.239-77.02-1.207-124.55-7.828-10.83-12.032-3.01-31.891-4.81-45.719 48.13-11.442 97.47 9.019 117.93-42.731-1.81-15.64-51.75-10.832-12.64-20.453-31.28-13.238-63.78-5.418-97.47-13.84-6.02-13.839-12.04-32.488-4.82-45.726 37.31-16.25 84.24 1.797 120.95-7.82-6.62-3.012-13.24-3.012-17.45-7.832 15.64-3.61 42.72 1.812 48.73-22.86m-53.55-29.48c-31.28-6.02-74.61-6.02-113.72 1.8 36.71-5.41 77.02 3.008 113.72-1.8m-101.08 179.3c-10.23 22.27-6.62 49.942-6.02 79.43-17.45-14.441-15.64-48.738-16.85-75.82 4.82-4.211 16.25-10.828 22.87-3.61m-3.01-40.91h-1.81c-4.21-7.218-16.24-3.011-15.64-12.039 1.2-22.859-12.64-69.191 16.85-76.41 3.61 22.859-4.82 63.18.6 88.449m513.24 129.36c-3.01-81.828 0-157.039-.6-241.282-10.23-22.859-36.1-3.609-49.34-10.828-41.52 61.371-71.6 126.36-117.33 182.918 18.65-62.578 66.79-119.738 96.87-179.308 13.84-15.641 32.49-16.848 50.54-18.649-35.5-17.453-57.76 22.86-72.2 46.93-29.48 43.918-47.53 90.859-87.85 129.969-10.23-25.27-15.04 27.07-10.83 42.718 3.61 13.84 2.41 36.704-13.24 42.723-4.81-2.41-9.02-7.223-10.83-12.039 14.44-74.004 0-156.441 5.42-231.051-6.62-.601-13.24-10.23-22.26-3.609-2.41 4.816-5.42 9.027-7.83 13.238 6.02 80.031-3 172.692 2.41 250.309 13.24 16.242 29.48 10.23 47.53 9.019 51.15-75.207 99.89-154.636 151.63-232.25 4.22.602 6.62 5.41 8.43 7.223-5.42 25.269-21.66 24.059-31.89 51.141 18.65 37.308 12.03 89.046 19.25 128.16-4.81-45.731 4.21-90.852 6.02-135.981 20.46 55.348-7.82 131.168 15.04 182.309 15.64 5.422 20.46-8.418 21.06-21.66m671.48-238.27c2.41-13.238-13.24-18.648-27.08-16.851-56.56-4.809-108.91-.598-163.06-.598-9.63-.602-9.63 8.418-14.44 15.039-4.21 86.051 3.61 170.891 0 252.109 6.62 7.231 10.83 14.45 0 0 6.62 7.231 10.83 14.45 17.45 14.45 63.78.601 137.79 19.851 182.32-14.45-4.22-9.019-3.62-11.429-10.23-18.648-27.68 6.019-19.86-12.031-10.83-16.242-40.32-13.239-77.02-1.207-124.56-7.828-10.83-12.032-3-31.891-4.81-45.719 48.14-11.442 97.48 9.019 117.93-42.731-1.8-15.64-51.74-10.832-12.63-20.453-31.29-13.238-63.78-5.418-97.48-13.84-6.01-13.839-12.03-32.488-4.81-45.726 37.3-16.25 84.24 1.797 120.94-7.82-6.62-3.012-13.24-3.012-17.45-7.832 15.65-3.61 42.72 1.812 48.74-22.86m-53.55-29.48c-31.29-6.02-74.61-6.02-113.72 1.8 36.7-5.41 77.01 3.008 113.72-1.8m-101.09 179.3c-10.23 22.27-6.62 49.942-6.02 79.43-17.44-14.441-15.64-48.738-16.84-75.82 4.81-4.211 16.24-10.828 22.86-3.61m-3.01-40.91h-1.8c-4.21-7.218-16.25-3.011-15.65-12.039 1.21-22.859-12.63-69.191 16.85-76.41 3.61 22.859-4.81 63.18.6 88.449m397.12-85.441c3-15.649-.61-34.297-18.66-37.309-13.23-9.629-22.86 7.821-30.08 16.852-5.42 15.637 5.41 27.68 18.65 37.297 13.24 4.82 22.87-6.008 30.09-16.84m457.88 225.031c-30.08-83.031-53.55-173.289-83.64-256.32-15.64-9.629-31.89-7.82-45.73-1.809-35.5 84.84-66.78 172.09-100.48 259.328 4.81 4.223 9.03 7.231 10.83 11.442 34.9-7.219 30.09-50.551 44.53-75.219 18.65-53.551 39.11-105.293 63.78-154.031 11.43-3.61 11.43 5.41 13.24 9.629-42.12 32.492 18.05 51.14 16.24 87.242-3.61-18.051-12.03-34.293-10.83-52.953 29.48 49.34 44.53 122.75 66.79 182.922 10.83 11.429 24.67 1.199 25.27-10.231m226.83-225.031c3.01-15.649-.6-34.297-18.65-37.309-13.24-9.629-22.86 7.821-30.09 16.852-5.41 15.637 5.42 27.68 18.66 37.297 13.23 4.82 22.86-6.008 30.08-16.84M543.137 810.109c-8.426-12.039-28.883-15.05-31.891 3.012 7.82 30.078 6.617 57.16-4.215 86.039-10.226-18.648 0-45.129-6.015-63.781-10.227 22.262 8.425 68.59-25.871 69.191-45.129.61-81.832 5.418-120.34-3 9.023 9.621 1.203 25.27-10.231 27.071-11.433-3.012-12.636-16.852-12.031-30.082-12.035-34.899 21.66-78.829-11.434-100.489-9.027-.601-16.246 7.821-19.254 15.051 3.61 81.828 10.829 163.66-1.804 247.289 4.211 11.44 15.039 12.04 24.668 12.64 14.441-19.86-2.406-49.94 10.226-77.019.606-13.242-16.843-36.699 6.621-45.133 46.332 20.461 116.129-10.828 157.645 25.282 4.211 2.402-3.008-34.301 16.246-12.641-12.637 35.5 4.211 70.401-2.406 104.091 4.211 9.63 11.433 5.42 18.051 5.42 4.812-1.81 7.218-4.21 9.628-6.02 6.016-88.448-6.019-168.471 2.407-256.921m-33.696 96.27c1.805 6.621 5.414 20.461-5.418 15.641-10.828-7.219 7.223-15.641 5.418-15.641m380.262-95.668c-6.015-9.031-17.445-14.441-26.473-10.231-16.847 17.45-3.609 72.809-39.109 52.95-10.832-9.629 9.625-1.809 9.625-13.239-38.508-4.211-83.637.598-122.746 1.207 29.484 8.422 72.805-3.609 104.094 9.024-34.297 5.418-72.805 6.019-109.508 9.027-31.289-8.429-14.441-80.027-58.367-54.758 30.086 89.649 61.976 177.5 99.281 263.549 15.043 13.83 34.297 1.2 52.348 2.4 28.882-85.441 57.765-175.089 90.855-259.929m-62.574 83.629c-20.457 49.34-29.484 103.5-52.348 152.23-6.621-9.62-6.015-18.65-10.23-27.67-34.899-33.701-37.305-83.638-60.168-123.349 11.43-6.02 36.101-.602 33.094 13.238 21.66-15.051 55.355-6.617 75.211-3.609 4.812-4.219 5.414-13.239 14.441-10.84m-52.949 120.34c0-4.81 14.441-19.848-8.426-21.051 1.805 7.221 6.019 14.441 8.426 21.051m459.09-189.532c-18.66-30.687-60.17-21.058-91.46-31.289-50.54 4.211-117.93-12.027-138.39 48.141-1.21 72.801-27.682 157.641 19.85 214.8 57.77 27.08 123.35 28.28 183.52 10.23 27.68-16.85 25.27-53.55 26.48-80.632-4.22-7.218-9.03-9.617-18.05-7.816-27.68 10.227 6.01 70.998-31.89 55.358 0-6.62 11.43-8.42 7.82-19.86-43.93 11.44-93.87 9.63-138.39-6.01-19.26 12.63 34.9 28.88-1.21 27.07-27.67 1.21-19.25-30.68-27.67-46.929 6.61-51.75-25.876-132.981 36.7-152.832 1.8 2.41 6.62 2.41 6.02 7.223-2.41 2.41-2.41 2.41-4.22 1.796 34.3-7.218 91.46-13.839 131.17 3.614.61-1.801.61-6.614 3.01-6.614 22.27 7.821-4.81 58.961 34.3 46.934 16.25-17.453 6.02-42.723 2.41-63.184m235.85 107.102c9.03-9.02-21.06 6.02-21.66 16.852 15.65 12.64 67.99 64.978 19.86 10.23-17.45-7.82 1.2-18.051 1.8-27.082m87.25 128.77c-48.74-27.08-92.66-68-136.59-103.5 38.51-43.918 99.28-82.43 135.39-128.161-1.81-7.218-3.61-16.238-12.64-18.648-11.43-3.012-43.92 18.051-20.46-7.82-43.92 27.668-75.81 80.621-122.14 94.461-9.63 6.019 1.8 11.437-1.21 20.457 40.32-30.079 78.23-71.598 116.13-101.688-19.85 39.719-71.6 78.219-109.51 108.91-7.22 8.43-5.41 26.481-25.87 21.059-1.8-2.41-4.21-4.211-6.62-6.621 1.81-34.289 1.21-77.617 7.22-108.91.6-13.829-15.04-19.25-24.07-12.629-4.81 2.41-.6 6.621-5.41 9.019 10.23 80.031 10.83 166.071 4.81 250.311 4.82 2.41 9.03 4.81 13.84 2.41 12.64-37.91-9.63-90.861 16.25-114.932 11.43-4.207 15.64 9.633 19.85 16.852-4.81 0-12.03 8.422-5.41 13.242 13.84.598 37.91 19.848 11.43-1.812.6-9.02 7.22-4.211 11.43-3.61 35.5 30.69 69.8 73.41 111.92 98.08 15.64 3.01 30.08-10.23 21.66-26.47m341.15-247.899c2.41-13.242-13.23-18.66-27.07-16.851-56.56-4.821-108.91-.598-163.06-.598-9.63-.613-9.63 8.418-14.44 15.039-4.21 86.039 3.61 170.879 0 252.109 6.62 7.22 10.83 14.44 0 0 6.62 7.22 10.83 14.44 17.45 14.44 63.78.6 137.79 19.86 182.31-14.44-4.21-9.02-3.61-11.43-10.23-18.65-27.68 6.01-19.85-12.04-10.83-16.25-40.31-13.24-77.02-1.2-124.55-7.82-10.83-12.03-3.01-31.889-4.81-45.729 48.13-11.43 97.47 9.027 117.93-42.723-1.81-15.636-51.75-10.828-12.64-20.457-31.28-13.242-63.78-5.41-97.47-13.839-6.02-13.84-12.04-32.493-4.82-45.731 37.31-16.242 84.24 1.809 120.95-7.82-6.62-3.012-13.24-3.012-17.45-7.821 15.64-3.609 42.72 1.809 48.73-22.859m-53.55-29.492c-31.28-6.008-74.61-6.008-113.72 1.812 36.71-5.421 77.02 3.008 113.72-1.812m-101.08 179.312c-10.23 22.258-6.62 49.939-6.02 79.419-17.45-14.44-15.64-48.731-16.85-75.809 4.82-4.211 16.25-10.832 22.87-3.61m-3.01-40.921h-1.81c-4.21-7.219-16.24-3.008-15.64-12.032 1.2-22.867-12.64-69.199 16.85-76.418 3.61 22.871-4.82 63.18.6 88.45m503.61-120.34c-6.62-2.399-10.83-7.219-19.85-5.41-26.48 30.679 16.24 89.652-32.49 105.902 21.66-17.453 13.83-56.563 13.23-81.231-14.44 10.231 6.02 63.778-34.9 59.571-31.89.597-70.39 6.008-99.28-9.032-16.84 19.86 34.9 28.879-4.21 36.102-9.02 1.809-17.45-7.82-17.45-14.441-14.44-34.903 26.48-87.25-18.05-100.481-4.81 6.621-12.03 10.828-14.44 17.449 10.23 80.02 1.2 170.282 2.41 252.111 4.21 4.81 6.01 7.22 10.83 12.03 75.21-3.61 175.69 30.69 211.19-45.12 3.61-33.7 16.85-76.419-13.83-100.489 26.47-37.301 15.04-81.231 16.84-126.961m-31.89 212.4c3.61 11.44-33.69 39.72-12.03 13.24 9.63-22.26 13.84-55.961 1.2-79.422 24.67 12.633 7.22 43.321 10.83 66.182m-15.64-14.439c-30.69 33.099-89.05 9.629-127.56 12.639-12.04 10.83 7.82 30.08-12.64 26.47-7.82-27.68-4.21-58.961-7.22-88.449 2.41-4.809 7.22-9.02 11.43-10.832 33.1 28.281 75.22 5.422 115.53 7.222 29.48 3.61 19.26 32.489 20.46 52.95m396.51-95.071c6.02-36.101 1.2-74.609-30.09-92.058-63.17-12.032-157.04-40.91-198.56 25.277-3 13.231-8.42 27.07 4.82 40.91 37.9 10.832 20.46-55.961 55.96-36.097-2.41 2.41-4.22 2.41-6.62 4.207 42.72 0 98.07-13.84 128.76 19.25 3.61 16.25-8.42 29.492-22.26 33.703-50.55 13.238-124.55-15.043-156.44 40.308 30.08-12.031-12.64 31.289-6.62 52.352.6 29.488 8.42 66.188 39.71 78.818 53.55 13.84 113.12 12.04 163.66-4.21 16.85-17.45 37.91-36.7 27.68-64.38-9.03-.6-17.45-12.029-24.67-1.2-12.03 10.83-1.81 38.51-27.08 37.3 3.01-9.02 12.64-19.85 10.83-33.69-42.11 25.27-105.29 18.05-140.79-1.81-5.42 13.84 27.07 55.96-10.23 31.29-13.24-16.25-9.63-43.321-2.41-58.97 12.03-13.23 30.09-12.031 39.11-4.808 47.54 1.808 98.08-2.41 134.78-10.231-7.22 4.207-18.65 1.809-27.68 1.211 13.84-8.433 49.34-27.082 48.14-57.172m-55.96-120.34c-38.51-4.21-81.23-10.832-118.53 1.211 39.11-.601 80.02-5.421 118.53-1.211m-28.88 134.782c-27.68 6.019-63.78 6.617-89.05 5.418 27.68-6.02 66.19-6.02 89.05-5.418m55.36-18.051c-16.85 26.48 5.41-22.262-1.21-27.07-2.4 9.019 6.62 16.238 1.21 27.07m367.63 45.129c-6.02-18.649-22.87-37.301-43.33-42.719-15.64-.601-36.1.598-49.94-4.812 12.04-15.047 41.52-2.411 59.57-8.43-35.5-19.848-86.04-1.797-121.54-21.66-16.25 10.832 21.06 30.691-6.02 34.301-40.31-15.649 1.2-81.829-29.48-110.711-6.62 1.8-16.25 6.011-18.66 12.632 5.42 86.649-3 175.098 1.81 259.329 56.56 16.25 128.76 19.26 182.31-.6 33.1-28.28 24.07-78.818 25.28-117.33m-95.07 93.26c-11.44 6.62-29.49-1.2-38.51-3.61 13.84.61 36.7-.6 38.51 3.61m62.57-67.389c-.6 13.84-1.2 27.078-1.8 40.919-18.05 46.93 10.23-24.669 1.8-40.919m-15.64-14.441c-3.01 18.05 4.81 43.33-9.03 56.56-32.49 7.83-71 3.61-102.28-2.4-4.82 11.43.6 29.48-15.05 31.28-.6-31.89-8.42-66.179-2.4-102.28 2.4-4.821 7.22-6.621 13.83-4.219 35.51 19.859 80.03-10.231 114.93 21.059m403.73-146.809c-6.02-9.031-17.45-14.441-26.47-10.231-16.85 17.45-3.61 72.809-39.11 52.95-10.83-9.629 9.62-1.809 9.62-13.239-38.51-4.211-83.63.598-122.74 1.207 29.48 8.422 72.8-3.609 104.09 9.024-34.3 5.418-72.81 6.019-109.51 9.027-31.29-8.429-14.44-80.027-58.36-54.758 30.08 89.649 61.97 177.5 99.28 263.549 15.04 13.83 34.29 1.2 52.34 2.4 28.89-85.441 57.77-175.089 90.86-259.929m-62.58 83.629c-20.45 49.34-29.48 103.5-52.34 152.23-6.62-9.62-6.02-18.65-10.23-27.67-34.9-33.701-37.31-83.638-60.17-123.349 11.43-6.02 36.1-.602 33.09 13.238 21.66-15.051 55.36-6.617 75.21-3.609 4.82-4.219 5.42-13.239 14.44-10.84m-52.95 120.34c0-4.81 14.45-19.848-8.42-21.051 1.81 7.221 6.02 14.441 8.42 21.051m459.09-189.532c-18.65-30.687-60.17-21.058-91.46-31.289-50.54 4.211-117.93-12.027-138.39 48.141-1.2 72.801-27.67 157.641 19.86 214.8 57.76 27.08 123.35 28.28 183.52 10.23 27.68-16.85 25.27-53.55 26.47-80.632-4.21-7.218-9.02-9.617-18.05-7.816-27.68 10.227 6.02 70.998-31.89 55.358 0-6.62 11.43-8.42 7.82-19.86-43.92 11.44-93.86 9.63-138.39-6.01-19.25 12.63 34.9 28.88-1.2 27.07-27.68 1.21-19.26-30.68-27.68-46.929 6.62-51.75-25.87-132.981 36.7-152.832 1.81 2.41 6.62 2.41 6.02 7.223-2.41 2.41-2.41 2.41-4.21 1.796 34.3-7.218 91.46-13.839 131.17 3.614.6-1.801.6-6.614 3.01-6.614 22.26 7.821-4.81 58.961 34.3 46.934 16.24-17.453 6.01-42.723 2.4-63.184m321.9-12.027c2.41-13.242-13.23-18.66-27.07-16.851-56.56-4.821-108.91-.598-163.06-.598-9.63-.613-9.63 8.418-14.45 15.039-4.21 86.039 3.61 170.879 0 252.109 6.62 7.22 10.84 14.44 0 0 6.62 7.22 10.84 14.44 17.45 14.44 63.78.6 137.79 19.86 182.32-14.44-4.21-9.02-3.61-11.43-10.23-18.65-27.68 6.01-19.86-12.04-10.83-16.25-40.31-13.24-77.02-1.2-124.55-7.82-10.83-12.03-3.01-31.889-4.82-45.729 48.14-11.43 97.48 9.027 117.94-42.723-1.81-15.636-51.75-10.828-12.64-20.457-31.29-13.242-63.78-5.41-97.47-13.839-6.02-13.84-12.04-32.493-4.82-45.731 37.31-16.242 84.24 1.809 120.94-7.82-6.61-3.012-13.23-3.012-17.45-7.821 15.65-3.609 42.73 1.809 48.74-22.859m-53.55-29.492c-31.29-6.008-74.61-6.008-113.72 1.812 36.7-5.421 77.02 3.008 113.72-1.812m-101.08 179.312c-10.23 22.258-6.62 49.939-6.02 79.419-17.45-14.44-15.65-48.731-16.85-75.809 4.81-4.211 16.25-10.832 22.87-3.61m-3.01-40.921h-1.81c-4.21-7.219-16.24-3.008-15.64-12.032 1.2-22.867-12.64-69.199 16.85-76.418 3.61 22.871-4.82 63.18.6 88.45" style="fill:#fff;fill-opacity:1;fill-rule:nonzero;stroke:none" transform="matrix(.13333 0 0 -.13333 -27.347 486.721)"/></svg>
