<svg xmlns="http://www.w3.org/2000/svg" width="255.504" height="324.404" viewBox="0 0 255.504 324.404"><path d="M255.504 272.73v-14.355H241.15v14.354zm-31.58-17.226h14.355V241.15h-14.354Zm0-17.225h14.355v-14.354h-14.354Zm-17.224 68.9h14.354v-14.354H206.7Zm0-17.225h14.354V275.6H206.7Zm0-17.225h14.354v-14.354H206.7Zm0-17.225h14.354V241.15H206.7Zm0-17.225h14.354v-14.354H206.7Zm0-17.225h14.354V206.7H206.7Zm-17.225 103.35h14.354V310.05h-14.354Zm0-68.9h14.354V241.15h-14.354Zm0-17.225h14.354v-14.354h-14.354Zm0-17.225h14.354V206.7h-14.354Zm0-17.226h14.354v-14.353h-14.354Zm0-68.9h14.354v-14.354h-14.354Zm0-51.674h14.354V68.9h-14.354ZM172.25 238.279h14.353v-14.354H172.25zm0-17.225h14.353V206.7H172.25zm0-17.226h14.353v-14.353H172.25zm0-51.674h14.353v-14.355H172.25zm0-51.675h14.353V86.125H172.25zm0-51.675h14.353V34.45H172.25zM155.025 238.28h14.353v-14.354h-14.353zm0-17.225h14.353V206.7h-14.353zm0-17.226h14.353v-14.353h-14.353zm0-17.225h14.353V172.25h-14.353zm0-17.225h14.353v-14.354h-14.353zm0-17.224h14.353v-14.355h-14.353zm0-17.225h14.353v-14.355h-14.353zm0-17.225h14.353v-14.355h-14.353zm0-17.225h14.353V86.125h-14.353zm0-51.675h14.353V34.45h-14.353zm0-17.225h14.353V17.225h-14.353zM137.8 255.504h14.354V241.15H137.8zm0-17.225h14.354v-14.354H137.8zm0-17.225h14.354V206.7H137.8zm0-17.226h14.354v-14.353H137.8zm0-51.674h14.354v-14.355H137.8zm0-17.225h14.354v-14.355H137.8zm0-17.225h14.354v-14.355H137.8zm0-17.225h14.354V86.125H137.8zm0-34.45h14.354V51.675H137.8zm0-17.225h14.354V34.45H137.8zm0-17.225h14.354V17.225H137.8zm-17.225 223.925h14.354V241.15h-14.354zm0-17.225h14.354v-14.354h-14.354zm0-17.225h14.354V206.7h-14.354zm0-17.226h14.354v-14.353h-14.354zm0-51.674h14.354v-14.355h-14.354zm0-17.225h14.354v-14.355h-14.354zm0-34.45h14.354V86.125h-14.354zm0-17.225h14.354V68.9h-14.354zm0-17.225h14.354V51.675h-14.354zm0-17.225h14.354V34.45h-14.354zm-17.225 68.9h14.354v-14.355H103.35zm0-17.225h14.354V86.125H103.35zm0-34.45h14.354V51.675H103.35zm0-17.225h14.354V34.45H103.35ZM86.125 272.73h14.354v-14.354H86.125Zm0-17.225h14.354V241.15H86.125Zm0-17.225h14.354v-14.354H86.125Zm0-17.225h14.354V206.7H86.125Zm0-17.226h14.354v-14.353H86.125Zm0-51.674h14.354v-14.355H86.125Zm0-17.225h14.354v-14.355H86.125Zm0-34.45h14.354V86.125H86.125Zm0-51.675h14.354V34.45H86.125Zm0-17.225h14.354V17.225H86.125Zm0-17.225h14.354V0H86.125ZM68.9 289.954h14.354V275.6H68.9Zm0-17.225h14.354v-14.354H68.9Zm0-17.225h14.354V241.15H68.9Zm0-17.225h14.354v-14.354H68.9Zm0-17.225h14.354V206.7H68.9Zm0-68.9h14.354v-14.355H68.9Zm0-17.225h14.354v-14.355H68.9Zm0-51.675h14.354V68.9H68.9Zm0-51.675h14.354V17.225H68.9ZM51.675 324.404h14.354V310.05H51.675Zm0-17.225h14.354v-14.354H51.675Zm0-86.125h14.354V206.7H51.675Zm0-17.226h14.354v-14.353H51.675Zm0-68.9h14.354v-14.354H51.675ZM34.45 324.405h14.354V310.05H34.45Zm0-103.35h14.354V206.7H34.45Zm0-17.226h14.354v-14.353H34.45Zm0-17.225h14.354V172.25H34.45ZM17.225 238.28h14.354v-14.354H17.225Zm0-17.225h14.354V206.7H17.225Zm0-17.226h14.354v-14.353H17.225Zm0-17.225h14.354V172.25H17.225Zm0-17.225h14.354v-14.354H17.225ZM0 238.28h14.354v-14.354H0Zm0-17.225h14.354V206.7H0Zm117.703-100.48H103.35v14.355h14.354zm0 17.225H103.35v14.355h14.354zm0 17.225H103.35v14.354h14.354zm0 17.225H103.35v14.354h14.354zm0 17.226H103.35v14.353h14.354zm0 17.225H103.35v14.354h14.354zm0 17.225H103.35v14.354h14.354zm0 17.225H103.35v14.354h14.354z" style="fill:#028755;fill-opacity:.49503624;fill-rule:nonzero;stroke:none;stroke-width:.13333"/></svg>
